<svg width="25" height="25" viewBox="0 0 25 25" fill="none" xmlns="http://www.w3.org/2000/svg">
<g id="symbol">
<path id="Subtract" opacity="0.9" fill-rule="evenodd" clip-rule="evenodd" d="M10.6675 7.93129C10.752 7.9044 10.8112 7.82694 10.8112 7.7382V0.198016C10.8112 0.0886549 10.7226 0 10.6132 0H7.38728C7.27792 0 7.18926 0.0886547 7.18926 0.198016V3.2591C7.18926 3.36846 7.10061 3.45711 6.99125 3.45711H3.87489C3.76553 3.45711 3.67688 3.54577 3.67688 3.65513V7.26559C3.67688 7.37495 3.58822 7.46361 3.47886 7.46361H0.198009C0.0886473 7.46361 -7.62939e-06 7.55226 -7.62939e-06 7.66162V10.668C-7.62939e-06 10.7774 0.0886471 10.866 0.198008 10.866H7.61358C7.70051 10.866 7.77685 10.8092 7.80515 10.727C8.26182 9.40056 9.32714 8.35744 10.6675 7.93129ZM16.4242 10.866C16.3373 10.866 16.2609 10.8092 16.2326 10.727C15.7933 9.451 14.7908 8.43719 13.522 7.98256C13.4411 7.95356 13.3854 7.87782 13.3854 7.79183V0.198016C13.3854 0.0886549 13.4741 0 13.5834 0H16.8094C16.9187 0 17.0074 0.0886547 17.0074 0.198016V3.2591C17.0074 3.36846 17.096 3.45711 17.2054 3.45711H20.3219C20.4312 3.45711 20.5199 3.54577 20.5199 3.65513V7.26559C20.5199 7.37495 20.6085 7.46361 20.7179 7.46361H23.9988C24.1082 7.46361 24.1968 7.55226 24.1968 7.66162V10.668C24.1968 10.7774 24.1082 10.866 23.9988 10.866H16.4242ZM13.3854 16.5642C13.3854 16.4782 13.4411 16.4024 13.522 16.3734C14.8065 15.9132 15.8181 14.8798 16.2487 13.5816C16.2763 13.4982 16.3532 13.4403 16.441 13.4403H23.9988C24.1082 13.4403 24.1968 13.5289 24.1968 13.6383V16.6447C24.1968 16.7541 24.1082 16.8427 23.9988 16.8427H20.7179C20.6085 16.8427 20.5199 16.9314 20.5199 17.0407V20.6512C20.5199 20.7605 20.4312 20.8492 20.3219 20.8492H17.2054C17.096 20.8492 17.0074 20.9379 17.0074 21.0472V24.1083C17.0074 24.2177 16.9187 24.3063 16.8094 24.3063H13.5834C13.4741 24.3063 13.3854 24.2177 13.3854 24.1083V16.5642ZM7.59681 13.4403C7.6846 13.4403 7.76148 13.4982 7.78912 13.5816C8.23652 14.9305 9.31122 15.9935 10.6675 16.4247C10.752 16.4516 10.8112 16.5291 10.8112 16.6178V24.1083C10.8112 24.2177 10.7226 24.3063 10.6132 24.3063H7.38731C7.27795 24.3063 7.18929 24.2177 7.18929 24.1083V21.0472C7.18929 20.9379 7.10064 20.8492 6.99128 20.8492H3.87492C3.76556 20.8492 3.67691 20.7605 3.67691 20.6512V17.0407C3.67691 16.9314 3.58825 16.8427 3.47889 16.8427H0.198039C0.0886779 16.8427 2.32275e-05 16.7541 2.32275e-05 16.6447V13.6383C2.32275e-05 13.5289 0.0886781 13.4403 0.198039 13.4403H7.59681Z" fill="#FDA700"/>
</g>
</svg>
