<svg width="24" height="25" viewBox="0 0 24 25" fill="none" xmlns="http://www.w3.org/2000/svg">
<g id="mdi:twitter">
<path id="Vector" d="M22.46 6.97931C21.69 7.32931 20.86 7.55931 20 7.66931C20.88 7.13931 21.56 6.29931 21.88 5.28931C21.05 5.78931 20.13 6.13931 19.16 6.33931C18.37 5.47931 17.26 4.97931 16 4.97931C13.65 4.97931 11.73 6.89931 11.73 9.26931C11.73 9.60931 11.77 9.93931 11.84 10.2493C8.28004 10.0693 5.11004 8.35931 3.00004 5.76931C2.63004 6.39931 2.42004 7.13931 2.42004 7.91931C2.42004 9.40931 3.17004 10.7293 4.33004 11.4793C3.62004 11.4793 2.96004 11.2793 2.38004 10.9793V11.0093C2.38004 13.0893 3.86004 14.8293 5.82004 15.2193C5.19077 15.3915 4.53013 15.4155 3.89004 15.2893C4.16165 16.1418 4.69358 16.8877 5.41106 17.4222C6.12854 17.9568 6.99549 18.253 7.89004 18.2693C6.37367 19.4697 4.49404 20.1186 2.56004 20.1093C2.22004 20.1093 1.88004 20.0893 1.54004 20.0493C3.44004 21.2693 5.70004 21.9793 8.12004 21.9793C16 21.9793 20.33 15.4393 20.33 9.76931C20.33 9.57931 20.33 9.39931 20.32 9.20931C21.16 8.60931 21.88 7.84931 22.46 6.97931Z" fill="#465300"/>
</g>
</svg>
